HIERARCHY
ROOT Hips
{
	OFFSET 0.000000 0.000000 0.000000
	CHANNELS 6 Xposition Yposition Zposition Zrotation Yrotation Xrotation 
	JOINT LHipJoint
	{
		OFFSET 0.000000 0.000000 0.000000
		CHANNELS 3 Zrotation Yrotation Xrotation
		JOINT LeftUpLeg
		{
			OFFSET 1.363060 -1.794630 0.839290
			CHANNELS 3 Zrotation Yrotation Xrotation
			JOINT LeftLeg
			{
				OFFSET 2.448110 -6.726130 0.000000
				CHANNELS 3 Zrotation Yrotation Xrotation
				JOINT LeftFoot
				{
					OFFSET 2.562200 -7.039590 0.000000
					CHANNELS 3 Zrotation Yrotation Xrotation
					JOINT LeftToeBase
					{
						OFFSET 0.157640 -0.433110 2.322550
						CHANNELS 3 Zrotation Yrotation Xrotation
						End Site
						{
							OFFSET 0.000000 0.000000 0.000000
						}
					}
				}
			}
		}
	}
	JOINT RHipJoint
	{
		OFFSET 0.000000 0.000000 0.000000
		CHANNELS 3 Zrotation Yrotation Xrotation
		JOINT RightUpLeg
		{
			OFFSET -1.305520 -1.794630 0.839290
			CHANNELS 3 Zrotation Yrotation Xrotation
			JOINT RightLeg
			{
				OFFSET -2.542530 -6.985550 0.000000
				CHANNELS 3 Zrotation Yrotation Xrotation
				JOINT RightFoot
				{
					OFFSET -2.568260 -7.056230 0.000000
					CHANNELS 3 Zrotation Yrotation Xrotation
					JOINT RightToeBase
					{
						OFFSET -0.164730 -0.452590 2.363150
						CHANNELS 3 Zrotation Yrotation Xrotation
						End Site
						{
							OFFSET 0.000000 0.000000 0.000000
						}
					}
				}
			}
		}
	}
	JOINT LowerBack
	{
		OFFSET 0.000000 0.000000 0.000000
		CHANNELS 3 Zrotation Yrotation Xrotation
		JOINT Spine
		{
			OFFSET 0.028270 2.035590 -0.193380
			CHANNELS 3 Zrotation Yrotation Xrotation
			JOINT Spine1
			{
				OFFSET 0.056720 2.048850 -0.042750
				CHANNELS 3 Zrotation Yrotation Xrotation
				JOINT Neck
				{
					OFFSET 0.000000 0.000000 0.000000
					CHANNELS 3 Zrotation Yrotation Xrotation
					JOINT Neck1
					{
						OFFSET -0.054170 1.746240 0.172020
						CHANNELS 3 Zrotation Yrotation Xrotation
						JOINT Head
						{
							OFFSET 0.104070 1.761360 -0.123970
							CHANNELS 3 Zrotation Yrotation Xrotation
							End Site
							{
								OFFSET 0.000000 0.000000 0.000000
							}
						}
					}
				}
				JOINT LeftShoulder
				{
					OFFSET 0.000000 0.000000 0.000000
					CHANNELS 3 Zrotation Yrotation Xrotation
					JOINT LeftArm
					{
						OFFSET 3.362410 1.200890 -0.311210
						CHANNELS 3 Zrotation Yrotation Xrotation
						JOINT LeftForeArm
						{
							OFFSET 4.983000 -0.000000 -0.000000
							CHANNELS 3 Zrotation Yrotation Xrotation
							JOINT LeftHand
							{
								OFFSET 3.483560 -0.000000 -0.000000
								CHANNELS 3 Zrotation Yrotation Xrotation
								JOINT LeftFingerBase
								{
									OFFSET 0.000000 0.000000 0.000000
									CHANNELS 3 Zrotation Yrotation Xrotation
									JOINT LeftHandIndex1
									{
										OFFSET 0.715260 -0.000000 -0.000000
										CHANNELS 3 Zrotation Yrotation Xrotation
										End Site
										{
											OFFSET 0.000000 0.000000 0.000000
										}
									}
								}
								JOINT LThumb
								{
									OFFSET 0.000000 0.000000 0.000000
									CHANNELS 3 Zrotation Yrotation Xrotation
									End Site
									{
										OFFSET 0.000000 0.000000 0.000000
									}
								}
							}
						}
					}
				}
				JOINT RightShoulder
				{
					OFFSET 0.000000 0.000000 0.000000
					CHANNELS 3 Zrotation Yrotation Xrotation
					JOINT RightArm
					{
						OFFSET -3.136600 1.374050 -0.404650
						CHANNELS 3 Zrotation Yrotation Xrotation
						JOINT RightForeArm
						{
							OFFSET -5.241900 -0.000000 -0.000000
							CHANNELS 3 Zrotation Yrotation Xrotation
							JOINT RightHand
							{
								OFFSET -3.444170 -0.000000 -0.000000
								CHANNELS 3 Zrotation Yrotation Xrotation
								JOINT RightFingerBase
								{
									OFFSET 0.000000 0.000000 0.000000
									CHANNELS 3 Zrotation Yrotation Xrotation
									JOINT RightHandIndex1
									{
										OFFSET -0.622530 -0.000000 -0.000000
										CHANNELS 3 Zrotation Yrotation Xrotation
										End Site
										{
											OFFSET 0.000000 0.000000 0.000000
										}
									}
								}
								JOINT RThumb
								{
									OFFSET 0.000000 0.000000 0.000000
									CHANNELS 3 Zrotation Yrotation Xrotation
									End Site
									{
										OFFSET 0.000000 0.000000 0.000000
									}
								}
							}
						}
					}
				}
			}
		}
	}
}
MOTION
Frames: 11
Frame Time: 0.008333
3.797853 14.552508 10.851411 4.301293 2.975998 -0.254020 -2.816877 13.730424 5.999814 -30.307405 -22.935715 -44.174212 -2.259187 -1.835864 47.135349 3.877278 11.516781 3.217270 2.551147 3.629893 1.977499 -0.442974 -9.093183 3.925541 -2.650165 -0.230894 -16.733163 -7.193725 -21.303838 90.576205 8.330343 -4.728585 11.784457 0.799920 12.197939 -12.028482 2.476699 -1.171376 2.030188 -0.931668 1.715560 -3.700539 -8.115008 2.881031 15.176606 0.445957 -1.363778 -19.099373 1.368323 -1.624243 16.698851 8.715990 -8.898413 5.946697 11.554524 -0.274883 -5.184278 -79.169050 17.417724 7.513334 32.169448 -72.362096 13.722296 17.795330 -28.333318 -0.718534 0.000002 -0.000001 0.000002 -0.000000 0.000000 -0.000000 -0.000000 -0.000000 0.000000 -4.170764 -3.921827 3.335216 66.075920 22.814736 17.151158 -24.641823 80.027346 32.985307 -39.044893 14.299563 -3.514570 -0.000005 0.000004 -0.000002 0.000000 -0.000000 -0.000000 0.000000 0.000000 0.000000 
3.762913 14.484384 11.190541 5.297958 3.527218 -0.379083 -2.274602 13.859476 5.742368 -31.923860 -23.985474 -43.040771 -1.160497 0.023916 49.697197 3.511149 10.767731 0.133250 2.985333 3.974891 2.517780 -0.601961 -9.579334 4.582933 -3.639431 1.289384 -20.479676 -8.591602 -22.345419 93.314655 6.249675 -5.085482 9.224426 1.416068 11.197666 -12.194308 1.564831 -1.141307 1.853735 -0.843109 1.558989 -3.514068 -7.679357 2.813229 17.630267 -0.109705 -1.552993 -21.076430 1.615106 -1.694390 16.135342 8.271736 -8.957456 6.865556 11.281200 0.098766 -5.029537 -79.551343 11.145564 7.542935 26.930820 -71.342496 17.716646 18.005584 -28.850726 -0.785167 0.000002 -0.000001 0.000002 0.000000 0.000000 0.000000 -0.000000 -0.000000 -0.000000 -4.490637 -6.150472 4.036108 67.409187 24.895472 15.627252 -9.324705 77.939392 44.906785 -39.407036 15.062437 -3.726689 -0.000005 0.000004 -0.000002 0.000000 0.000000 0.000000 -0.000000 0.000000 0.000000 
3.745526 14.446547 11.521216 6.103404 3.886442 -0.230390 -2.182043 13.881857 5.545397 -32.520223 -25.121272 -42.140439 -0.248726 1.805866 51.511410 3.259936 9.899018 -2.786799 3.501828 4.491842 3.067390 -0.517680 -9.949878 5.452455 -4.809587 2.824335 -25.008154 -9.307790 -23.187835 95.580854 3.792755 -5.877626 6.644101 1.695089 9.346307 -10.834738 1.286483 -1.025884 1.523913 -0.963146 1.126134 -3.314823 -8.721884 3.014538 20.047131 0.561509 -1.594600 -23.133505 1.779203 -1.826299 15.480839 7.483291 -8.614774 8.070702 11.693197 0.939173 -4.647619 -79.616419 4.291187 7.116044 20.794503 -70.117681 21.643646 17.206382 -28.944981 -0.574365 0.000002 -0.000001 0.000002 -0.000000 0.000000 0.000000 0.000000 0.000000 0.000000 -3.203392 -7.912314 4.908897 68.649805 27.481841 13.199817 4.175324 74.870798 53.939415 -38.123292 16.914826 -3.892750 -0.000005 0.000004 -0.000002 -0.000000 0.000000 0.000000 -0.000000 0.000000 -0.000000 
3.742853 14.423619 11.841186 6.719216 4.070500 -0.127848 -2.477088 13.630827 5.353669 -32.240794 -26.025791 -41.598456 -0.509700 2.951294 53.645982 3.600165 10.441561 -5.795675 3.429680 3.971190 3.351045 -0.158343 -10.018491 6.129243 -6.286651 4.086413 -29.299427 -11.138806 -23.742296 97.415502 1.496281 -5.876439 5.139974 0.047904 6.502169 -5.174776 1.505274 -0.848375 1.350520 -1.249134 0.824937 -3.130982 -9.310333 3.059158 20.848891 0.557339 -1.631206 -23.652054 1.905277 -1.861333 14.946553 7.516352 -8.675833 8.064541 11.225082 0.907012 -3.884000 -79.423770 -1.434323 6.543867 15.466319 -68.446461 24.167301 15.419302 -27.932074 -0.085398 0.000002 -0.000001 0.000002 0.000000 0.000000 -0.000000 -0.000000 0.000000 0.000000 -2.704222 -8.423148 4.816210 70.021839 27.378567 10.330120 12.805493 71.021221 55.901251 -37.729010 15.083891 -3.467975 -0.000005 0.000004 -0.000002 0.000000 -0.000000 0.000000 0.000000 -0.000000 -0.000000 
3.748318 14.396366 12.157553 7.315328 4.041465 -0.136426 -2.774472 13.397968 5.279739 -32.222827 -26.508718 -41.163725 -0.909914 3.646896 55.915064 3.795400 11.268697 -8.734634 3.616766 3.642085 3.967255 0.098302 -9.926406 6.398480 -7.588086 5.071145 -33.034617 -13.319205 -23.750295 98.901480 1.032552 -6.105504 3.855711 2.745245 4.269487 -8.220068 1.888218 -0.731484 1.348214 -1.588806 0.661169 -2.975865 -9.369412 2.991492 21.345159 -0.120406 -1.608826 -23.888147 2.052070 -1.699130 14.404856 8.025517 -8.694404 7.432797 9.974263 0.731072 -2.968038 -79.032980 -7.026952 6.088702 11.143853 -66.402548 26.653654 14.458946 -27.614408 0.160195 0.000002 -0.000001 0.000002 -0.000000 0.000000 0.000000 -0.000000 0.000000 -0.000000 -2.934396 -8.812908 4.738742 71.395111 27.061635 6.882223 18.885980 66.667598 57.267227 -37.169353 15.113859 -3.380782 -0.000005 0.000004 -0.000002 -0.000000 0.000000 0.000000 -0.000000 0.000000 0.000000 
3.768093 14.369009 12.480811 7.255727 3.560234 -0.274051 -2.314046 13.844531 5.504038 -32.537532 -26.848314 -40.437138 -1.280746 4.085431 57.542920 3.776437 11.613213 -11.979043 4.148764 3.425008 5.135628 -0.251049 -10.794459 7.015937 -7.162538 7.054151 -37.371582 -12.548928 -23.308851 99.503015 -2.227820 -8.343459 2.366923 -1.175379 11.415300 -6.620442 2.018636 -0.601629 0.907829 -1.571040 0.305124 -2.844953 -9.433370 2.859446 22.810463 -0.145798 -1.602174 -25.041817 2.179125 -1.613441 14.625551 8.714985 -8.467278 7.397394 9.907414 1.930733 -2.065150 -79.465819 -12.819512 5.814578 7.436124 -64.924982 28.531285 13.166284 -27.495624 0.495173 0.000002 -0.000001 0.000002 0.000000 -0.000000 -0.000000 0.000000 -0.000000 0.000000 -2.865002 -9.556301 5.153207 72.343862 28.137189 3.192103 23.752903 61.307915 57.435828 -32.832138 18.557008 -3.252926 -0.000005 0.000004 -0.000002 0.000000 0.000000 -0.000000 -0.000000 0.000000 -0.000000 
3.799444 14.369039 12.786351 6.975324 3.066287 -0.550121 -2.494675 14.079881 5.428142 -32.380629 -26.145372 -39.612044 -0.645195 4.596232 58.729567 3.582495 10.463186 -14.815137 4.632987 3.490368 5.972489 -0.433490 -11.329437 7.571846 -6.715658 8.802335 -41.269409 -13.206799 -22.598726 99.317192 -3.914805 -9.576241 1.889506 -1.520302 10.920914 -5.555235 2.413086 -0.418531 0.692503 -1.662052 -0.030190 -2.754988 -9.703845 2.760981 23.049039 0.050212 -1.617888 -25.073955 2.249703 -1.615057 15.165593 8.576200 -8.253735 7.697648 9.954422 2.307015 -1.236398 -79.661102 -17.330970 5.476510 4.730870 -63.305893 29.516387 11.007755 -26.973405 1.023434 0.000002 -0.000001 0.000002 0.000000 0.000000 0.000000 0.000000 -0.000000 0.000000 -2.490409 -9.646677 5.448766 73.062041 27.923497 -0.511003 25.694198 55.634072 55.027988 -29.690646 19.710329 -2.833839 -0.000005 0.000004 -0.000002 0.000000 0.000000 -0.000000 -0.000000 0.000000 -0.000000 
3.815195 14.367417 13.080706 6.974603 2.426163 -0.859950 -2.713296 14.017258 5.223096 -32.465272 -24.780831 -38.778227 0.311740 5.182711 59.688316 3.292515 8.821091 -17.351475 5.188530 3.712224 6.801558 -0.454485 -11.431039 7.727246 -6.706774 10.347864 -44.534462 -15.487680 -21.710332 98.760844 -2.995557 -9.830623 1.788904 6.185917 3.154969 -13.474207 2.312424 -0.348503 0.718654 -1.667373 -0.245990 -2.746206 -10.377001 2.940949 22.591376 0.730557 -1.551465 -24.552216 2.350365 -1.603953 15.730438 8.001313 -7.390002 6.907492 10.402175 2.299152 -0.518243 -79.536966 -21.203447 5.152817 2.741841 -61.416752 30.428967 9.506338 -27.001539 1.414180 0.000002 -0.000001 0.000002 -0.000000 0.000000 -0.000000 0.000000 0.000000 0.000000 -1.651276 -9.263828 5.484411 73.778752 26.951403 -4.591856 26.361118 49.816678 53.135936 -28.431352 20.398333 -2.665262 -0.000005 0.000004 -0.000002 -0.000000 0.000000 0.000000 -0.000000 -0.000000 0.000000 
3.826201 14.357538 13.389354 6.971781 1.831801 -1.270574 -2.673866 14.306690 5.227391 -33.063164 -23.505883 -37.756366 1.215328 5.296320 60.767564 2.966925 7.301870 -19.781010 5.847890 3.913999 7.821737 -0.436339 -11.875999 7.912328 -6.538576 11.984978 -47.644995 -16.730192 -20.610042 97.838423 -3.367880 -10.779284 2.175993 6.533590 4.541634 -15.201378 2.104469 -0.373298 0.638680 -1.584729 -0.582578 -2.673150 -10.137447 2.433509 22.020350 0.433016 -1.479047 -23.789783 2.394363 -1.438604 16.268170 8.113019 -6.794856 6.516145 9.652402 2.571738 0.219991 -79.183312 -24.758886 5.253598 1.873682 -59.306372 31.337220 11.016236 -27.826920 1.064089 0.000002 -0.000001 0.000002 0.000000 0.000000 0.000000 -0.000000 -0.000000 -0.000000 -2.032948 -8.261431 5.341048 74.490815 25.635559 -8.402067 25.748135 44.255842 49.041009 -24.314162 20.833939 -1.889580 -0.000005 0.000004 -0.000002 -0.000000 0.000000 0.000000 0.000000 -0.000000 -0.000000 
3.841757 14.356652 13.697372 6.833870 1.276854 -1.696586 -2.425042 14.879975 5.424392 -33.654927 -22.485336 -36.513173 1.539938 5.035363 61.532519 2.814860 6.063713 -22.164443 6.434926 3.867696 8.914518 -0.621696 -12.624962 8.134795 -5.428714 13.563440 -50.471928 -17.283262 -19.025788 96.077986 -4.368331 -10.397294 0.605272 4.822645 7.267626 -14.634565 2.176117 -0.316842 0.551438 -1.453609 -0.908435 -2.614919 -9.370402 1.766589 21.916159 -0.223683 -1.348869 -23.524829 2.174424 -1.157321 16.477957 8.133669 -6.363695 6.742778 9.117071 3.041138 0.955391 -80.074592 -27.710969 6.030533 1.340899 -59.297262 31.198009 11.411505 -27.437039 0.941165 0.000002 -0.000001 0.000002 0.000000 -0.000000 -0.000000 -0.000000 -0.000000 0.000000 -2.807493 -7.779270 5.157793 74.598016 24.039490 -10.852178 26.265879 41.158825 45.049018 -20.395553 20.875589 -1.114691 -0.000005 0.000004 -0.000002 -0.000000 0.000000 -0.000000 0.000000 0.000000 -0.000000 
3.860285 14.360631 13.980931 6.647278 1.026517 -2.103121 -2.398612 14.733721 5.111417 -33.814174 -21.009165 -35.037199 1.440415 4.846950 62.127260 2.812572 5.165044 -24.525263 6.821137 3.557941 9.867940 -0.883742 -12.803719 8.228712 -4.235931 14.569756 -52.623431 -18.244130 -17.804282 93.529115 -4.479699 -9.267311 -0.901253 4.472175 8.091604 -14.819365 2.343289 -0.133824 0.814025 -1.324501 -1.280843 -2.693992 -9.173675 1.301568 21.387775 -0.234727 -1.199377 -23.003271 1.926410 -0.979940 16.620067 7.207052 -5.722182 6.943810 9.419582 2.805501 1.287319 -81.051727 -29.882772 6.966098 1.276642 -59.675314 30.857842 11.874558 -26.913113 0.805771 0.000002 -0.000001 0.000002 0.000000 0.000000 0.000000 0.000000 0.000000 0.000000 -2.801707 -7.532381 5.019049 74.464751 22.064421 -12.647688 26.459371 38.803829 44.364703 -20.224661 21.520742 -1.108165 -0.000005 0.000004 -0.000002 0.000000 -0.000000 0.000000 0.000000 0.000000 0.000000 
